<?xml version="1.0" encoding="utf-8"?>
<!-- Generator: Adobe Illustrator 19.2.1, SVG Export Plug-In . SVG Version: 6.00 Build 0)  -->
<svg version="1.1" id="Layer_1" xmlns="http://www.w3.org/2000/svg" xmlns:xlink="http://www.w3.org/1999/xlink" x="0px" y="0px"
	 viewBox="0 0 44 44" style="enable-background:new 0 0 44 44;" xml:space="preserve">
<style type="text/css">
	.st0{fill:#E82245;}
</style>
<g>
	<g>
		<path class="st0" d="M22.4,34.7c-6.7,0-12.2-5.5-12.2-12.2s5.5-12.2,12.2-12.2s12.2,5.5,12.2,12.2S29.1,34.7,22.4,34.7z
			 M22.4,12.2c-5.7,0-10.3,4.6-10.3,10.3s4.6,10.3,10.3,10.3s10.3-4.6,10.3-10.3S28.1,12.2,22.4,12.2z"/>
	</g>
	<g>
		<path class="st0" d="M11.1,23.4H4c-0.5,0-0.9-0.4-0.9-0.9s0.4-0.9,0.9-0.9h7.1c0.5,0,0.9,0.4,0.9,0.9C12.1,23,11.6,23.4,11.1,23.4
			z"/>
	</g>
	<g>
		<path class="st0" d="M40.8,23.4h-7.1c-0.5,0-0.9-0.4-0.9-0.9s0.4-0.9,0.9-0.9h7.1c0.5,0,0.9,0.4,0.9,0.9
			C41.7,23,41.3,23.4,40.8,23.4z"/>
	</g>
	<g>
		<path class="st0" d="M22.4,12.2c-0.5,0-0.9-0.4-0.9-0.9V4.1c0-0.5,0.4-0.9,0.9-0.9s0.9,0.4,0.9,0.9v7.1
			C23.3,11.8,22.9,12.2,22.4,12.2z"/>
	</g>
	<g>
		<path class="st0" d="M22.4,41.8c-0.5,0-0.9-0.4-0.9-0.9v-7.1c0-0.5,0.4-0.9,0.9-0.9s0.9,0.4,0.9,0.9v7.1
			C23.3,41.4,22.9,41.8,22.4,41.8z"/>
	</g>
</g>
</svg>
